<svg xmlns="http://www.w3.org/2000/svg" width="190.847" height="40.617" viewBox="0 0 190.847 40.617">
    <g data-name="Grupo 3">
        <g data-name="Grupo 2">
            <g data-name="Grupo 5">
                <path data-name="Trazado 420" d="M68.168 213.994a6.773 6.773 0 0 0 .933 3.333q1.565 2.4 5.519 2.4a9.449 9.449 0 0 0 3.226-.526 3.7 3.7 0 0 0 2.816-3.646 3.188 3.188 0 0 0-1.193-2.807 11.807 11.807 0 0 0-3.785-1.427l-3.165-.74a14.027 14.027 0 0 1-4.39-1.593 5.093 5.093 0 0 1-2.226-4.514 7.047 7.047 0 0 1 2.188-5.336 8.632 8.632 0 0 1 6.2-2.084 10.561 10.561 0 0 1 6.271 1.83q2.58 1.831 2.58 5.853h-3.07a6.209 6.209 0 0 0-1.007-2.971q-1.433-1.889-4.864-1.888a5.469 5.469 0 0 0-3.982 1.215 3.876 3.876 0 0 0-1.212 2.823 2.777 2.777 0 0 0 1.431 2.595 20.554 20.554 0 0 0 4.248 1.313l3.277.772a9.87 9.87 0 0 1 3.658 1.527 5.786 5.786 0 0 1 2.227 4.908q0 4.007-2.842 5.73a12.483 12.483 0 0 1-6.6 1.724 9.726 9.726 0 0 1-6.869-2.3 7.853 7.853 0 0 1-2.434-6.191z" transform="translate(-65.097 -197.052)" style="fill:#f0cd71"/>
                <path data-name="Trazado 421" d="M104.552 209.743h2.889v2.331a7.185 7.185 0 0 1 1.942-1.855 6.262 6.262 0 0 1 3.522-.985 6.632 6.632 0 0 1 5.087 2.29 9.37 9.37 0 0 1 2.091 6.542q0 5.746-3.016 8.209a6.831 6.831 0 0 1-4.45 1.56 6.06 6.06 0 0 1-3.346-.87 7.7 7.7 0 0 1-1.764-1.691v8.981h-2.955zm11.118 13.783a8.222 8.222 0 0 0 1.376-5.18 9.642 9.642 0 0 0-.61-3.612 4.471 4.471 0 0 0-8.436.166 12.134 12.134 0 0 0-.61 4.17 8.812 8.812 0 0 0 .61 3.464 4.485 4.485 0 0 0 7.668.994" transform="translate(-82.804 -202.519)" style="fill:#f0cd71"/>
                <path data-name="Trazado 422" d="M145.85 216.6a1.605 1.605 0 0 0 1.363-.852 2.618 2.618 0 0 0 .2-1.137 2.414 2.414 0 0 0-1.073-2.2 5.727 5.727 0 0 0-3.072-.684 3.891 3.891 0 0 0-3.277 1.254 4.151 4.151 0 0 0-.7 2.062h-2.758q.082-3.259 2.107-4.536a8.627 8.627 0 0 1 4.7-1.276 9.556 9.556 0 0 1 5.035 1.182 4.013 4.013 0 0 1 1.919 3.678v10.131a1.3 1.3 0 0 0 .189.739.911.911 0 0 0 .8.278c.131 0 .279-.008.443-.024s.339-.041.525-.074v2.183a8.316 8.316 0 0 1-1.051.246 7.625 7.625 0 0 1-.985.05 2.431 2.431 0 0 1-2.216-1.084 4.183 4.183 0 0 1-.509-1.625 7.52 7.52 0 0 1-2.594 2.052 8.026 8.026 0 0 1-3.727.87 5.546 5.546 0 0 1-4-1.484 4.927 4.927 0 0 1-1.551-3.715 4.78 4.78 0 0 1 1.527-3.787 7.27 7.27 0 0 1 4.006-1.656zm-6.223 7.984a3.474 3.474 0 0 0 2.216.738 6.749 6.749 0 0 0 3.021-.722 4.059 4.059 0 0 0 2.463-3.918v-2.377a5.02 5.02 0 0 1-1.393.577 11.684 11.684 0 0 1-1.671.329l-1.786.23a6.911 6.911 0 0 0-2.414.672 2.611 2.611 0 0 0-1.371 2.457 2.426 2.426 0 0 0 .936 2.015" transform="translate(-96.741 -202.519)" style="fill:#f0cd71"/>
                <path data-name="Trazado 423" d="M169.19 209.686H172v2.5a7.875 7.875 0 0 1 2.644-2.216 7.04 7.04 0 0 1 3.1-.674q3.743 0 5.057 2.61a9.277 9.277 0 0 1 .722 4.088v11.276h-3v-11.082a6 6 0 0 0-.476-2.593 2.887 2.887 0 0 0-2.857-1.642 5.817 5.817 0 0 0-1.724.213 4.44 4.44 0 0 0-2.134 1.445 4.342 4.342 0 0 0-.96 1.8 12.058 12.058 0 0 0-.222 2.651v9.211h-2.96z" transform="translate(-111.814 -202.545)" style="fill:#f0cd71"/>
                <path data-name="Trazado 424" d="M201.285 198.154h3v3.346h-3zm0 6.616h3v17.5h-3z" transform="translate(-126.218 -197.547)" style="fill:#f0cd71"/>
                <path data-name="Trazado 425" d="M221.763 216.6a1.6 1.6 0 0 0 1.363-.852 2.617 2.617 0 0 0 .2-1.137 2.413 2.413 0 0 0-1.074-2.2 5.725 5.725 0 0 0-3.072-.684 3.891 3.891 0 0 0-3.277 1.254 4.152 4.152 0 0 0-.7 2.062h-2.759q.082-3.259 2.107-4.536a8.627 8.627 0 0 1 4.7-1.276 9.554 9.554 0 0 1 5.035 1.182 4.012 4.012 0 0 1 1.919 3.678v10.131a1.3 1.3 0 0 0 .189.739.913.913 0 0 0 .8.278c.131 0 .279-.008.443-.024s.34-.041.525-.074v2.183a8.316 8.316 0 0 1-1.051.246 7.635 7.635 0 0 1-.986.05 2.43 2.43 0 0 1-2.216-1.084 4.183 4.183 0 0 1-.509-1.625 7.527 7.527 0 0 1-2.595 2.052 8.025 8.025 0 0 1-3.727.87 5.545 5.545 0 0 1-4-1.484 4.925 4.925 0 0 1-1.552-3.715 4.78 4.78 0 0 1 1.527-3.787 7.27 7.27 0 0 1 4.006-1.656zm-6.222 7.984a3.471 3.471 0 0 0 2.216.738 6.747 6.747 0 0 0 3.02-.722 4.058 4.058 0 0 0 2.463-3.918v-2.377a5.032 5.032 0 0 1-1.393.577 11.692 11.692 0 0 1-1.67.329l-1.786.23a6.91 6.91 0 0 0-2.415.672 2.612 2.612 0 0 0-1.371 2.457 2.426 2.426 0 0 0 .936 2.015" transform="translate(-130.81 -202.519)" style="fill:#f0cd71"/>
                <path data-name="Trazado 426" d="M244.6 198h2.873v8.751a6.475 6.475 0 0 1 5.258-2.595 6.892 6.892 0 0 1 5.348 2.258q2.052 2.257 2.052 6.657A11.386 11.386 0 0 1 258.1 220a6.584 6.584 0 0 1-5.62 2.758 5.777 5.777 0 0 1-3.395-.968 8.188 8.188 0 0 1-1.764-1.839v2.249H244.6zm11.3 20.244a9.352 9.352 0 0 0 1.194-5.025 8.226 8.226 0 0 0-1.194-4.6 3.937 3.937 0 0 0-3.517-1.822 4.912 4.912 0 0 0-3.55 1.494q-1.524 1.494-1.524 4.925a10.852 10.852 0 0 0 .626 4.023 4.324 4.324 0 0 0 4.366 2.906 3.965 3.965 0 0 0 3.6-1.9" transform="translate(-145.655 -197.479)" style="fill:#fff"/>
                <path data-name="Trazado 427" d="M288.962 211.349q2.331 2.264 2.332 6.659a11.478 11.478 0 0 1-2.054 7.021q-2.054 2.772-6.374 2.772a7.175 7.175 0 0 1-5.722-2.452 9.725 9.725 0 0 1-2.119-6.586 10.521 10.521 0 0 1 2.233-7.053 7.475 7.475 0 0 1 6-2.625 7.878 7.878 0 0 1 5.706 2.264m-1.835 11.686a11.156 11.156 0 0 0 1.08-4.944 8.882 8.882 0 0 0-.779-4 4.375 4.375 0 0 0-4.253-2.426 4.183 4.183 0 0 0-3.9 2.066 9.65 9.65 0 0 0-1.218 4.985 8.4 8.4 0 0 0 1.218 4.674 4.274 4.274 0 0 0 3.864 1.869 4.022 4.022 0 0 0 3.985-2.222" transform="translate(-159.311 -202.452)" style="fill:#fff"/>
                <path data-name="Trazado 428" d="M310.229 221.7a4.238 4.238 0 0 0 .753 2.266q1.139 1.428 3.955 1.428a5.935 5.935 0 0 0 2.949-.714 2.364 2.364 0 0 0 1.273-2.209 1.884 1.884 0 0 0-1.018-1.724 12.243 12.243 0 0 0-2.57-.837l-2.386-.591a11.766 11.766 0 0 1-3.37-1.248 3.719 3.719 0 0 1-1.936-3.317 5.037 5.037 0 0 1 1.822-4.038 7.33 7.33 0 0 1 4.9-1.544q4.026 0 5.806 2.332a5.023 5.023 0 0 1 1.082 3.184H318.7a3.347 3.347 0 0 0-.723-1.812 4.692 4.692 0 0 0-3.614-1.159 4.405 4.405 0 0 0-2.6.638 1.983 1.983 0 0 0-.882 1.684 2.068 2.068 0 0 0 1.16 1.833 7.036 7.036 0 0 0 1.973.72l1.991.477a15.593 15.593 0 0 1 4.349 1.494 3.957 3.957 0 0 1 1.724 3.562 5.4 5.4 0 0 1-1.8 4.055q-1.8 1.708-5.493 1.708-3.973 0-5.626-1.781a6.693 6.693 0 0 1-1.77-4.409z" transform="translate(-173.837 -202.492)" style="fill:#fff"/>
                <path data-name="Trazado 429" d="M337.22 201.1h2.988v4.908h2.807v2.414h-2.807V219.9a1.241 1.241 0 0 0 .624 1.231 2.645 2.645 0 0 0 1.149.181c.142 0 .3 0 .46-.011s.355-.025.574-.055v2.348a6.562 6.562 0 0 1-1.059.213 9.995 9.995 0 0 1-1.19.066 3.208 3.208 0 0 1-2.808-1.059 4.7 4.7 0 0 1-.739-2.75v-11.64h-2.381v-2.414h2.381z" transform="translate(-186.156 -198.87)" style="fill:#fff"/>
                <path data-name="Trazado 430" d="M363.309 210.172a6.653 6.653 0 0 1 2.66 2.274 7.864 7.864 0 0 1 1.175 3.1 20.42 20.42 0 0 1 .261 3.875h-12.789a7.6 7.6 0 0 0 1.254 4.305 4.182 4.182 0 0 0 3.632 1.622 4.667 4.667 0 0 0 3.665-1.534 5.219 5.219 0 0 0 1.085-2.062h2.906a6.125 6.125 0 0 1-.763 2.16 7.778 7.778 0 0 1-1.447 1.945 6.819 6.819 0 0 1-3.308 1.773 10 10 0 0 1-2.4.262 7.336 7.336 0 0 1-5.531-2.389 9.329 9.329 0 0 1-2.268-6.691 10.144 10.144 0 0 1 2.284-6.879 7.514 7.514 0 0 1 5.972-2.644 7.933 7.933 0 0 1 3.606.879m1.059 6.9a7.711 7.711 0 0 0-.831-3.07 4.247 4.247 0 0 0-4.021-2.134 4.438 4.438 0 0 0-3.386 1.469 5.572 5.572 0 0 0-1.449 3.735z" transform="translate(-193.61 -202.546)" style="fill:#fff"/>
                <path data-name="Trazado 431" d="M394.065 205.162a7.9 7.9 0 0 1 1.782 1.724V198h2.84v24.2h-2.66v-2.446a6.383 6.383 0 0 1-2.437 2.347 6.949 6.949 0 0 1-3.221.723 6.516 6.516 0 0 1-5.071-2.471 9.688 9.688 0 0 1-2.142-6.575 11.381 11.381 0 0 1 1.954-6.657 6.391 6.391 0 0 1 5.585-2.816 6.214 6.214 0 0 1 3.369.854m-6.6 13.183a4.171 4.171 0 0 0 3.823 1.9 4.018 4.018 0 0 0 3.356-1.764 8.37 8.37 0 0 0 1.315-5.066 7.516 7.516 0 0 0-1.356-4.933 4.22 4.22 0 0 0-3.349-1.6 4.411 4.411 0 0 0-3.6 1.708 7.846 7.846 0 0 0-1.38 5.023 8.752 8.752 0 0 0 1.192 4.729" transform="translate(-207.841 -197.479)" style="fill:#fff"/>
                <path data-name="Trazado 432" d="m115.092 258.967 3.432-8.731h.934l3.347 8.731h-.849l-1.007-2.741h-3.977l-1.031 2.741zm2.159-3.444h3.42l-1.71-4.584z" transform="translate(-87.535 -220.921)" style="fill:#fff"/>
                <path data-name="Trazado 433" d="M136.6 254.68h.728v6.282h-.728v-.873q-.146.17-.327.351a2.479 2.479 0 0 1-.418.334 2.421 2.421 0 0 1-.552.255 2.356 2.356 0 0 1-.728.1 2.773 2.773 0 0 1-1.055-.175 1.722 1.722 0 0 1-.685-.492 1.941 1.941 0 0 1-.376-.734 3.423 3.423 0 0 1-.115-.915v-4.133h.728v4.12a1.833 1.833 0 0 0 .376 1.243 1.564 1.564 0 0 0 1.237.431 1.8 1.8 0 0 0 .806-.176 1.689 1.689 0 0 0 .6-.491 2.355 2.355 0 0 0 .376-.752 3.272 3.272 0 0 0 .133-.958z" transform="translate(-95.275 -222.915)" style="fill:#fff"/>
                <path data-name="Trazado 434" d="M147.564 259.564a3.94 3.94 0 0 0-.352.085 1.794 1.794 0 0 1-.485.061 1.158 1.158 0 0 1-.831-.272 1.33 1.33 0 0 1-.285-.977v-4.6h-.885v-.606h.885v-1.746h.728v1.746h1.176v.606h-1.176v4.3q0 .231.012.4a.66.66 0 0 0 .073.279.346.346 0 0 0 .188.158 1.04 1.04 0 0 0 .358.048 1.84 1.84 0 0 0 .3-.024c.1-.016.2-.036.3-.061z" transform="translate(-100.834 -221.493)" style="fill:#fff"/>
                <path data-name="Trazado 435" d="M155.468 260.993a3.279 3.279 0 0 1-1.134-.218 2.532 2.532 0 0 1-.922-.618 2.957 2.957 0 0 1-.624-1.031 4.12 4.12 0 0 1-.23-1.443 4.432 4.432 0 0 1 .182-1.291 3.056 3.056 0 0 1 .546-1.049 2.6 2.6 0 0 1 .909-.709 2.926 2.926 0 0 1 1.273-.261 2.957 2.957 0 0 1 1.285.261 2.628 2.628 0 0 1 .909.7 2.906 2.906 0 0 1 .54 1.049 4.634 4.634 0 0 1 .176 1.3 4.205 4.205 0 0 1-.206 1.358 3.051 3.051 0 0 1-.588 1.043 2.588 2.588 0 0 1-.922.673 2.943 2.943 0 0 1-1.194.236m2.134-3.311a4.285 4.285 0 0 0-.121-1.043 2.474 2.474 0 0 0-.376-.843 1.8 1.8 0 0 0-.655-.563 2.122 2.122 0 0 0-.982-.206 1.993 1.993 0 0 0-.976.224 1.912 1.912 0 0 0-.661.594 2.622 2.622 0 0 0-.376.849 4.031 4.031 0 0 0-.121.988 3.909 3.909 0 0 0 .139 1.073 2.522 2.522 0 0 0 .406.843 1.834 1.834 0 0 0 .667.545 2.086 2.086 0 0 0 .922.194 1.987 1.987 0 0 0 .976-.224 1.881 1.881 0 0 0 .661-.6 2.693 2.693 0 0 0 .376-.849 3.932 3.932 0 0 0 .121-.982" transform="translate(-104.349 -222.777)" style="fill:#fff"/>
                <path data-name="Trazado 436" d="M167.63 260.823h-.73v-6.282h.728v1.176h.024a2.1 2.1 0 0 1 .782-1.049 2.381 2.381 0 0 1 1.267-.3v.788a2.13 2.13 0 0 0-1.019.194 1.675 1.675 0 0 0-.637.558 2.213 2.213 0 0 0-.327.831 5.355 5.355 0 0 0-.091 1z" transform="translate(-110.787 -222.777)" style="fill:#fff"/>
                <path data-name="Trazado 437" d="M175.591 250.236h.8v1.079h-.8zm.037 2.45h.728v6.282h-.728z" transform="translate(-114.686 -220.921)" style="fill:#fff"/>
                <path data-name="Trazado 438" d="M181.831 258.859a1.843 1.843 0 0 0 .612 1.146 2.073 2.073 0 0 0 1.267.334 2.2 2.2 0 0 0 .691-.1 1.385 1.385 0 0 0 .479-.261 1.116 1.116 0 0 0 .285-.37 1.013 1.013 0 0 0 .1-.437.805.805 0 0 0-.3-.685 2.27 2.27 0 0 0-.746-.352 9.466 9.466 0 0 0-.97-.218 4.738 4.738 0 0 1-.97-.273 1.939 1.939 0 0 1-.746-.522 1.409 1.409 0 0 1-.3-.958 1.637 1.637 0 0 1 .576-1.291 2.4 2.4 0 0 1 1.631-.5 2.784 2.784 0 0 1 1.655.455 2.077 2.077 0 0 1 .77 1.521h-.74a1.36 1.36 0 0 0-.552-1.024 2.056 2.056 0 0 0-1.146-.3 1.633 1.633 0 0 0-1.055.3.96.96 0 0 0-.364.782.763.763 0 0 0 .3.649 2.425 2.425 0 0 0 .746.364c.3.093.622.175.97.249a4.788 4.788 0 0 1 .97.309 2.136 2.136 0 0 1 .746.54 1.391 1.391 0 0 1 .3.946 1.592 1.592 0 0 1-.194.794 1.686 1.686 0 0 1-.534.576 2.474 2.474 0 0 1-.806.346 4.254 4.254 0 0 1-1.025.115 2.767 2.767 0 0 1-.988-.164 2.124 2.124 0 0 1-.734-.455 2.091 2.091 0 0 1-.473-.678 2.384 2.384 0 0 1-.194-.837z" transform="translate(-117.155 -222.777)" style="fill:#fff"/>
                <path data-name="Trazado 439" d="M194.143 257.853a3.421 3.421 0 0 0 .133.964 2.33 2.33 0 0 0 .394.788 1.9 1.9 0 0 0 .661.534 2.034 2.034 0 0 0 .922.2 2.008 2.008 0 0 0 1.225-.375 1.812 1.812 0 0 0 .679-1.068h.812a3.9 3.9 0 0 1-.352.831 2.558 2.558 0 0 1-.546.667 2.358 2.358 0 0 1-.776.443 3.155 3.155 0 0 1-1.043.157 3.036 3.036 0 0 1-1.3-.255 2.447 2.447 0 0 1-.9-.7 2.934 2.934 0 0 1-.521-1.042 4.72 4.72 0 0 1-.17-1.292 4.117 4.117 0 0 1 .2-1.3 3.29 3.29 0 0 1 .57-1.061 2.643 2.643 0 0 1 .9-.716 2.728 2.728 0 0 1 1.213-.261 2.5 2.5 0 0 1 2.037.891 3.921 3.921 0 0 1 .728 2.59zm4.1-.607a2.886 2.886 0 0 0-.127-.867 2.028 2.028 0 0 0-.376-.7 1.794 1.794 0 0 0-.625-.473 2.015 2.015 0 0 0-.861-.175 1.905 1.905 0 0 0-.855.182 1.948 1.948 0 0 0-.631.485 2.423 2.423 0 0 0-.418.7 3.265 3.265 0 0 0-.206.849z" transform="translate(-122.664 -222.777)" style="fill:#fff"/>
                <path data-name="Trazado 440" d="M208.285 260.823h-.728v-6.282h.728v1.176h.024a2.1 2.1 0 0 1 .782-1.049 2.382 2.382 0 0 1 1.267-.3v.788a2.13 2.13 0 0 0-1.019.194 1.679 1.679 0 0 0-.637.558 2.212 2.212 0 0 0-.327.831 5.358 5.358 0 0 0-.09 1z" transform="translate(-129.033 -222.777)" style="fill:#fff"/>
                <path data-name="Trazado 441" d="M218.227 259.564a3.94 3.94 0 0 0-.352.085 1.794 1.794 0 0 1-.485.061 1.158 1.158 0 0 1-.831-.272 1.33 1.33 0 0 1-.285-.977v-4.6h-.885v-.606h.885v-1.746H217v1.746h1.176v.606H217v4.3q0 .231.012.4a.66.66 0 0 0 .073.279.346.346 0 0 0 .188.158 1.04 1.04 0 0 0 .358.048 1.839 1.839 0 0 0 .3-.024c.1-.016.2-.036.3-.061z" transform="translate(-132.547 -221.493)" style="fill:#fff"/>
                <path data-name="Trazado 442" d="M231.543 257.853a3.42 3.42 0 0 0 .133.964 2.33 2.33 0 0 0 .394.788 1.9 1.9 0 0 0 .661.534 2.034 2.034 0 0 0 .922.2 2.008 2.008 0 0 0 1.225-.375 1.815 1.815 0 0 0 .68-1.068h.812a3.93 3.93 0 0 1-.351.831 2.57 2.57 0 0 1-.546.667 2.358 2.358 0 0 1-.776.443 3.155 3.155 0 0 1-1.043.157 3.036 3.036 0 0 1-1.3-.255 2.448 2.448 0 0 1-.9-.7 2.934 2.934 0 0 1-.521-1.042 4.721 4.721 0 0 1-.17-1.292 4.117 4.117 0 0 1 .2-1.3 3.29 3.29 0 0 1 .57-1.061 2.643 2.643 0 0 1 .9-.716 2.728 2.728 0 0 1 1.213-.261 2.5 2.5 0 0 1 2.037.891 3.918 3.918 0 0 1 .728 2.59zm4.1-.607a2.9 2.9 0 0 0-.127-.867 2.038 2.038 0 0 0-.376-.7 1.794 1.794 0 0 0-.625-.473 2.016 2.016 0 0 0-.861-.175 1.905 1.905 0 0 0-.855.182 1.948 1.948 0 0 0-.631.485 2.422 2.422 0 0 0-.418.7 3.264 3.264 0 0 0-.206.849z" transform="translate(-139.449 -222.777)" style="fill:#fff"/>
                <path data-name="Trazado 443" d="M245.023 250.236h.8v1.079h-.8zm.036 2.45h.727v6.282h-.727z" transform="translate(-145.847 -220.921)" style="fill:#fff"/>
                <path data-name="Trazado 444" d="M251.277 257.853a3.421 3.421 0 0 0 .134.964 2.328 2.328 0 0 0 .394.788 1.9 1.9 0 0 0 .661.534 2.034 2.034 0 0 0 .922.2 2.008 2.008 0 0 0 1.225-.375 1.814 1.814 0 0 0 .679-1.068h.812a3.933 3.933 0 0 1-.351.831 2.549 2.549 0 0 1-.546.667 2.355 2.355 0 0 1-.776.443 3.155 3.155 0 0 1-1.043.157 3.036 3.036 0 0 1-1.3-.255 2.447 2.447 0 0 1-.9-.7 2.934 2.934 0 0 1-.521-1.042 4.721 4.721 0 0 1-.17-1.292 4.1 4.1 0 0 1 .2-1.3 3.29 3.29 0 0 1 .57-1.061 2.646 2.646 0 0 1 .9-.716 2.732 2.732 0 0 1 1.213-.261 2.5 2.5 0 0 1 2.037.891 3.921 3.921 0 0 1 .728 2.59zm4.1-.607a2.886 2.886 0 0 0-.127-.867 2.028 2.028 0 0 0-.376-.7 1.8 1.8 0 0 0-.625-.473 2.016 2.016 0 0 0-.861-.175 1.906 1.906 0 0 0-.855.182 1.956 1.956 0 0 0-.631.485 2.447 2.447 0 0 0-.418.7 3.287 3.287 0 0 0-.206.849z" transform="translate(-148.306 -222.777)" style="fill:#fff"/>
                <path data-name="Trazado 445" d="M265.353 260.823h-.728v-6.282h.728v.873a4.623 4.623 0 0 1 .9-.752 2.077 2.077 0 0 1 1.122-.291 2.865 2.865 0 0 1 1.079.2 1.845 1.845 0 0 1 .837.7 1.562 1.562 0 0 1 .273.7 6.375 6.375 0 0 1 .042.746v4.111h-.728v-4.1a1.871 1.871 0 0 0-.376-1.273 1.6 1.6 0 0 0-1.249-.424 1.78 1.78 0 0 0-.618.1 1.948 1.948 0 0 0-.5.273 1.824 1.824 0 0 0-.625.849 2.307 2.307 0 0 0-.133.582q-.024.279-.024.606z" transform="translate(-154.644 -222.777)" style="fill:#fff"/>
                <path data-name="Trazado 446" d="M282.869 250.236h.728v8.731h-.728v-1.1h-.024a1.966 1.966 0 0 1-.406.552 2.454 2.454 0 0 1-.546.394 2.945 2.945 0 0 1-.612.243 2.363 2.363 0 0 1-.618.085 2.992 2.992 0 0 1-1.3-.255 2.416 2.416 0 0 1-.879-.7 2.839 2.839 0 0 1-.5-1.049 5.108 5.108 0 0 1-.158-1.3 4.665 4.665 0 0 1 .169-1.261 3.118 3.118 0 0 1 .516-1.061 2.543 2.543 0 0 1 .873-.728 2.667 2.667 0 0 1 1.243-.273 2.9 2.9 0 0 1 1.279.3 2.253 2.253 0 0 1 .964.879zm0 5.566a3.465 3.465 0 0 0-.146-1.013 2.6 2.6 0 0 0-.418-.836 2.067 2.067 0 0 0-.667-.57 1.849 1.849 0 0 0-.892-.212 2.029 2.029 0 0 0-.982.224 1.935 1.935 0 0 0-.679.612 2.631 2.631 0 0 0-.388.9 4.082 4.082 0 0 0-.1 1.11 3.075 3.075 0 0 0 .164 1.049 2.212 2.212 0 0 0 .455.77 1.933 1.933 0 0 0 .679.479 2.153 2.153 0 0 0 .849.164 1.961 1.961 0 0 0 .91-.206 1.917 1.917 0 0 0 .667-.564 2.577 2.577 0 0 0 .406-.849 3.864 3.864 0 0 0 .139-1.061" transform="translate(-160.568 -220.921)" style="fill:#fff"/>
                <path data-name="Trazado 447" d="M295.079 260.993a3.279 3.279 0 0 1-1.134-.218 2.532 2.532 0 0 1-.922-.618 2.957 2.957 0 0 1-.625-1.031 4.12 4.12 0 0 1-.23-1.443 4.433 4.433 0 0 1 .182-1.291 3.056 3.056 0 0 1 .546-1.049 2.6 2.6 0 0 1 .91-.709 2.926 2.926 0 0 1 1.273-.261 2.957 2.957 0 0 1 1.285.261 2.628 2.628 0 0 1 .909.7 2.907 2.907 0 0 1 .54 1.049 4.635 4.635 0 0 1 .176 1.3 4.2 4.2 0 0 1-.206 1.358 3.06 3.06 0 0 1-.588 1.043 2.593 2.593 0 0 1-.922.673 2.943 2.943 0 0 1-1.194.236m2.134-3.311a4.286 4.286 0 0 0-.121-1.043 2.474 2.474 0 0 0-.376-.843 1.8 1.8 0 0 0-.655-.563 2.122 2.122 0 0 0-.982-.206 1.993 1.993 0 0 0-.976.224 1.907 1.907 0 0 0-.661.594 2.61 2.61 0 0 0-.376.849 4.005 4.005 0 0 0-.121.988 3.91 3.91 0 0 0 .139 1.073 2.522 2.522 0 0 0 .406.843 1.83 1.83 0 0 0 .667.545 2.085 2.085 0 0 0 .922.194 1.988 1.988 0 0 0 .976-.224 1.881 1.881 0 0 0 .661-.6 2.693 2.693 0 0 0 .376-.849 3.933 3.933 0 0 0 .121-.982" transform="translate(-167.006 -222.777)" style="fill:#fff"/>
                <path data-name="Trazado 448" d="M307.021 260.823h-.728v-6.282h.728v.946h.024a1.914 1.914 0 0 1 .8-.831 2.339 2.339 0 0 1 1.139-.285 2.434 2.434 0 0 1 .74.1 1.679 1.679 0 0 1 .516.261 1.51 1.51 0 0 1 .352.382 2.634 2.634 0 0 1 .236.473 2.114 2.114 0 0 1 .843-.916 2.417 2.417 0 0 1 1.207-.3 2.114 2.114 0 0 1 1.024.212 1.536 1.536 0 0 1 .589.558 2.16 2.16 0 0 1 .273.794 6.317 6.317 0 0 1 .067.922v3.965h-.731v-4.341a1.772 1.772 0 0 0-.285-1.067 1.243 1.243 0 0 0-1.062-.388 1.757 1.757 0 0 0-1.418.715 1.377 1.377 0 0 0-.2.37 3.1 3.1 0 0 0-.128.443 3.671 3.671 0 0 0-.066.461q-.018.231-.018.424v3.383h-.723v-4.341a1.772 1.772 0 0 0-.285-1.067 1.243 1.243 0 0 0-1.062-.388 1.757 1.757 0 0 0-1.418.715 1.377 1.377 0 0 0-.2.37 3.108 3.108 0 0 0-.128.443 3.682 3.682 0 0 0-.066.461q-.018.231-.018.424z" transform="translate(-173.345 -222.777)" style="fill:#fff"/>
                <path data-name="Trazado 449" d="M326.282 258.859a1.843 1.843 0 0 0 .612 1.146 2.072 2.072 0 0 0 1.267.334 2.2 2.2 0 0 0 .691-.1 1.38 1.38 0 0 0 .479-.261 1.108 1.108 0 0 0 .285-.37 1.013 1.013 0 0 0 .1-.437.8.8 0 0 0-.3-.685 2.265 2.265 0 0 0-.746-.352 9.467 9.467 0 0 0-.97-.218 4.736 4.736 0 0 1-.97-.273 1.939 1.939 0 0 1-.746-.522 1.409 1.409 0 0 1-.3-.958 1.639 1.639 0 0 1 .576-1.291 2.4 2.4 0 0 1 1.631-.5 2.787 2.787 0 0 1 1.656.455 2.078 2.078 0 0 1 .77 1.521h-.74a1.36 1.36 0 0 0-.552-1.024 2.055 2.055 0 0 0-1.146-.3 1.634 1.634 0 0 0-1.055.3.96.96 0 0 0-.364.782.765.765 0 0 0 .3.649 2.435 2.435 0 0 0 .746.364c.3.093.622.175.97.249a4.788 4.788 0 0 1 .97.309 2.144 2.144 0 0 1 .746.54 1.394 1.394 0 0 1 .3.946 1.592 1.592 0 0 1-.194.794 1.681 1.681 0 0 1-.534.576 2.476 2.476 0 0 1-.806.346 4.262 4.262 0 0 1-1.025.115 2.768 2.768 0 0 1-.988-.164 2.129 2.129 0 0 1-.734-.455 2.1 2.1 0 0 1-.473-.678 2.408 2.408 0 0 1-.194-.837z" transform="translate(-181.984 -222.777)" style="fill:#fff"/>
                <path data-name="Trazado 450" d="M338.987 260.823h-.728v-6.282h.728v.946h.024a1.915 1.915 0 0 1 .8-.831 2.339 2.339 0 0 1 1.139-.285 2.435 2.435 0 0 1 .74.1 1.679 1.679 0 0 1 .516.261 1.51 1.51 0 0 1 .352.382 2.634 2.634 0 0 1 .236.473 2.114 2.114 0 0 1 .843-.916 2.417 2.417 0 0 1 1.207-.3 2.114 2.114 0 0 1 1.024.212 1.536 1.536 0 0 1 .589.558 2.16 2.16 0 0 1 .273.794 6.313 6.313 0 0 1 .067.922v3.965h-.728v-4.341a1.772 1.772 0 0 0-.285-1.067 1.243 1.243 0 0 0-1.062-.388 1.757 1.757 0 0 0-1.418.715 1.377 1.377 0 0 0-.2.37 3.1 3.1 0 0 0-.128.443 3.688 3.688 0 0 0-.066.461q-.018.231-.018.424v3.383h-.728v-4.341a1.772 1.772 0 0 0-.285-1.067 1.243 1.243 0 0 0-1.062-.388 1.757 1.757 0 0 0-1.418.715 1.379 1.379 0 0 0-.2.37 3.108 3.108 0 0 0-.128.443 3.682 3.682 0 0 0-.066.461q-.018.231-.018.424z" transform="translate(-187.691 -222.777)" style="fill:#fff"/>
                <path data-name="Trazado 451" d="M358.263 257.853a3.422 3.422 0 0 0 .134.964 2.321 2.321 0 0 0 .394.788 1.9 1.9 0 0 0 .661.534 2.034 2.034 0 0 0 .922.2 2.008 2.008 0 0 0 1.225-.375 1.814 1.814 0 0 0 .679-1.068h.812a3.929 3.929 0 0 1-.351.831 2.548 2.548 0 0 1-.546.667 2.355 2.355 0 0 1-.776.443 3.155 3.155 0 0 1-1.043.157 3.036 3.036 0 0 1-1.3-.255 2.447 2.447 0 0 1-.9-.7 2.934 2.934 0 0 1-.521-1.042 4.72 4.72 0 0 1-.17-1.292 4.1 4.1 0 0 1 .2-1.3 3.29 3.29 0 0 1 .57-1.061 2.646 2.646 0 0 1 .9-.716 2.732 2.732 0 0 1 1.213-.261 2.5 2.5 0 0 1 2.037.891 3.921 3.921 0 0 1 .728 2.59zm4.1-.607a2.886 2.886 0 0 0-.127-.867 2.028 2.028 0 0 0-.376-.7 1.8 1.8 0 0 0-.625-.473 2.015 2.015 0 0 0-.861-.175 1.906 1.906 0 0 0-.855.182 1.956 1.956 0 0 0-.631.485 2.434 2.434 0 0 0-.418.7 3.263 3.263 0 0 0-.207.849z" transform="translate(-196.32 -222.777)" style="fill:#fff"/>
                <path data-name="Trazado 452" d="M376.325 254.542h.728v5.676a5.572 5.572 0 0 1-.127 1.206 2.6 2.6 0 0 1-.455 1.013 2.289 2.289 0 0 1-.9.7 4.193 4.193 0 0 1-2.656.084 2.582 2.582 0 0 1-.812-.443 1.912 1.912 0 0 1-.479-.588 1.468 1.468 0 0 1-.176-.6h.776a1.432 1.432 0 0 0 .267.576 1.34 1.34 0 0 0 .431.352 1.86 1.86 0 0 0 .552.175 3.957 3.957 0 0 0 .631.049 2.4 2.4 0 0 0 1.188-.255 1.738 1.738 0 0 0 .679-.667 2.559 2.559 0 0 0 .3-.933 7.186 7.186 0 0 0 .055-1.068 2.255 2.255 0 0 1-.964.879 2.9 2.9 0 0 1-1.279.3 2.677 2.677 0 0 1-1.243-.272 2.554 2.554 0 0 1-.873-.728 3.118 3.118 0 0 1-.515-1.061 4.643 4.643 0 0 1-.17-1.261 5.134 5.134 0 0 1 .158-1.3 2.836 2.836 0 0 1 .5-1.048 2.417 2.417 0 0 1 .879-.7 2.994 2.994 0 0 1 1.3-.255 2.393 2.393 0 0 1 .618.085 2.97 2.97 0 0 1 .612.243 2.391 2.391 0 0 1 .546.4 2.106 2.106 0 0 1 .406.546h.024zm0 3.165a3.889 3.889 0 0 0-.139-1.061 2.6 2.6 0 0 0-.406-.849 1.911 1.911 0 0 0-.667-.563 1.953 1.953 0 0 0-.91-.206 2.152 2.152 0 0 0-.849.164 1.928 1.928 0 0 0-.679.479 2.231 2.231 0 0 0-.455.769 3.077 3.077 0 0 0-.164 1.049 4.1 4.1 0 0 0 .1 1.11 2.633 2.633 0 0 0 .388.9 1.926 1.926 0 0 0 .679.612 2.02 2.02 0 0 0 .982.224 1.855 1.855 0 0 0 .891-.212 2.066 2.066 0 0 0 .667-.57 2.614 2.614 0 0 0 .418-.837 3.461 3.461 0 0 0 .146-1.013" transform="translate(-202.511 -222.777)" style="fill:#fff"/>
                <path data-name="Rectángulo 3" transform="translate(177.198 29.315)" style="fill:#fff" d="M0 0h.727v8.731H0z"/>
                <path data-name="Trazado 453" d="M392.758 257.853a3.4 3.4 0 0 0 .134.964 2.328 2.328 0 0 0 .394.788 1.9 1.9 0 0 0 .661.534 2.032 2.032 0 0 0 .922.2 2.006 2.006 0 0 0 1.224-.375 1.815 1.815 0 0 0 .68-1.068h.812a3.934 3.934 0 0 1-.351.831 2.57 2.57 0 0 1-.546.667 2.356 2.356 0 0 1-.776.443 3.154 3.154 0 0 1-1.042.157 3.037 3.037 0 0 1-1.3-.255 2.452 2.452 0 0 1-.9-.7 2.943 2.943 0 0 1-.521-1.042 4.741 4.741 0 0 1-.17-1.292 4.1 4.1 0 0 1 .2-1.3 3.28 3.28 0 0 1 .57-1.061 2.641 2.641 0 0 1 .9-.716 2.73 2.73 0 0 1 1.213-.261 2.5 2.5 0 0 1 2.037.891 3.918 3.918 0 0 1 .728 2.59zm4.1-.607a2.9 2.9 0 0 0-.127-.867 2.038 2.038 0 0 0-.376-.7 1.794 1.794 0 0 0-.625-.473 2.015 2.015 0 0 0-.86-.175 1.908 1.908 0 0 0-.855.182 1.953 1.953 0 0 0-.631.485 2.446 2.446 0 0 0-.418.7 3.264 3.264 0 0 0-.206.849z" transform="translate(-211.801 -222.777)" style="fill:#fff"/>
                <path data-name="Trazado 454" d="M406.922 260.823h-.728v-6.282h.728v1.176h.024a2.1 2.1 0 0 1 .782-1.049 2.381 2.381 0 0 1 1.267-.3v.788a2.133 2.133 0 0 0-1.019.194 1.677 1.677 0 0 0-.636.558 2.214 2.214 0 0 0-.328.831 5.4 5.4 0 0 0-.09 1z" transform="translate(-218.18 -222.777)" style="fill:#fff"/>
            </g>
        </g>
    </g>
</svg>
